<svg width="32" height="33" viewBox="0 0 32 33" fill="none" xmlns="http://www.w3.org/2000/svg">
<rect y="0.0820312" width="32" height="32" rx="16" fill="#F7931A"/>
<g clip-path="url(#clip0_73_2387)">
<path d="M27.6397 18.9849C26.0371 25.4135 19.5259 29.3259 13.0965 27.7228C6.6698 26.1201 2.75746 19.6085 4.36085 13.1804C5.96283 6.75106 12.474 2.83843 18.9014 4.44111C25.3303 6.0438 29.2424 12.5561 27.6396 18.985L27.6397 18.9849H27.6397Z" fill="#F7931A"/>
<path d="M21.2915 14.3724C21.5304 12.7754 20.3146 11.917 18.6521 11.3444L19.1914 9.18117L17.8746 8.85306L17.3496 10.9593C17.0034 10.873 16.6479 10.7916 16.2945 10.711L16.8234 8.59081L15.5074 8.2627L14.9678 10.4252C14.6813 10.36 14.3999 10.2955 14.127 10.2276L14.1285 10.2208L12.3126 9.76731L11.9623 11.1737C11.9623 11.1737 12.9392 11.3977 12.9187 11.4115C13.4519 11.5446 13.5483 11.8975 13.5323 12.1773L12.918 14.6417C12.9547 14.651 13.0023 14.6645 13.0549 14.6856C13.0109 14.6747 12.9642 14.6628 12.9157 14.6512L12.0546 18.1035C11.9894 18.2655 11.824 18.5086 11.4512 18.4163C11.4644 18.4354 10.4941 18.1774 10.4941 18.1774L9.84033 19.6847L11.5539 20.1119C11.8727 20.1919 12.1851 20.2755 12.4928 20.3542L11.9479 22.5422L13.2631 22.8703L13.8028 20.7055C14.1621 20.8031 14.5108 20.893 14.8522 20.9778L14.3144 23.1324L15.6312 23.4605L16.1761 21.2766C18.4215 21.7016 20.1099 21.5303 20.8205 19.4993C21.3932 17.8641 20.792 16.9209 19.6107 16.3059C20.4711 16.1074 21.1192 15.5415 21.292 14.3725L21.2916 14.3722L21.2915 14.3724ZM18.2829 18.5912C17.876 20.2264 15.1229 19.3424 14.2302 19.1208L14.9533 16.222C15.8459 16.4449 18.7083 16.8858 18.283 18.5912H18.2829ZM18.6902 14.3487C18.319 15.836 16.0275 15.0804 15.2842 14.8951L15.9397 12.2661C16.6831 12.4514 19.0769 12.7972 18.6903 14.3487H18.6902Z" fill="white"/>
</g>
<defs>
<clipPath id="clip0_73_2387">
<rect width="24" height="24" fill="white" transform="translate(4 4.08203)"/>
</clipPath>
</defs>
</svg>
