<svg width="32" height="32" viewBox="0 0 32 32" fill="none" xmlns="http://www.w3.org/2000/svg">
<rect width="32" height="32" rx="16" fill="#F00500"/>
<g clip-path="url(#clip0_998_3246)">
<path d="M21.5726 6.11144C20.948 6.729 20.3758 7.39834 19.8672 8.11205L19.7063 8.06028C18.7788 7.76074 17.8176 7.57584 16.8489 7.51298C16.5572 7.49079 15.4688 7.49079 15.1135 7.51298C14.0401 7.58324 13.2173 7.74225 12.2823 8.06398C12.2449 8.07877 12.2112 8.08986 12.1776 8.10096C11.6502 7.39094 11.063 6.7253 10.416 6.11513C13.5203 4.54349 17.1519 4.35489 20.402 5.59372C20.7498 5.72315 21.0902 5.87476 21.423 6.03748L21.5726 6.11144Z" fill="#F00500"/>
<path d="M27.3622 20.138C26.891 21.4656 26.1841 22.697 25.2678 23.7694C24.7704 24.3463 24.2206 24.8751 23.6296 25.3559C22.2458 26.4579 20.6301 27.2455 18.9059 27.6597C16.9985 28.1146 15.0088 28.1146 13.1014 27.6597C11.3735 27.2455 9.76149 26.4579 8.37766 25.3559C7.78673 24.8751 7.23694 24.3463 6.73951 23.7694C4.10277 20.689 3.30239 16.4585 4.64508 12.6458C4.8994 11.9395 5.21731 11.2591 5.59879 10.6119C5.77457 10.3161 5.9915 9.98327 6.09622 9.84644C6.45527 11.3737 6.89659 12.7161 7.06116 13.2005C7.04994 13.2264 7.03498 13.256 7.02002 13.2819C6.14858 15.0273 5.67733 16.7099 5.56513 18.4998C5.56513 18.5219 5.56139 18.5478 5.56139 18.57C5.53147 19.1062 5.54643 19.3614 5.63619 19.6979C5.9167 20.7518 6.78065 21.913 8.13456 23.052C10.3524 24.9158 13.3594 26.2619 15.6371 26.4172C18.0121 26.5762 21.5165 25.2042 23.8503 23.1999C24.2168 22.8782 24.5609 22.538 24.8826 22.1756C25.1145 21.9093 25.4585 21.4508 25.4324 21.4508C25.4249 21.4508 25.4324 21.4434 25.4473 21.436C25.4585 21.4286 25.4698 21.4175 25.4623 21.4101C25.4585 21.4064 25.466 21.3953 25.4772 21.3916C25.4885 21.3879 25.4959 21.3805 25.4922 21.3731C25.4885 21.3657 25.4922 21.3583 25.5072 21.3546C25.5184 21.3509 25.5221 21.3398 25.5184 21.3324C25.5146 21.325 25.5184 21.3176 25.5259 21.3176C25.5333 21.3176 25.5408 21.3065 25.5408 21.2991C25.5408 21.2918 25.5483 21.2807 25.5558 21.2807C25.5633 21.2807 25.5707 21.2733 25.5707 21.2659C25.582 21.2363 25.6007 21.2067 25.6194 21.1808C25.6755 21.0958 25.8999 20.7001 25.9298 20.6335C26.143 20.1565 26.2776 19.7312 26.3412 19.3059C26.3711 19.1025 26.3898 18.729 26.3749 18.6403C26.3711 18.6255 26.3711 18.5996 26.3674 18.5589C26.3599 18.485 26.3562 18.374 26.3487 18.2631C26.3412 18.0967 26.3262 17.8637 26.315 17.7491C26.1542 16.0702 25.7203 14.6982 24.8975 13.2449C24.8639 13.1894 24.8339 13.134 24.8152 13.0896C24.8078 13.0785 24.804 13.0674 24.8003 13.06C24.9162 12.7161 25.3912 11.2776 25.769 9.63196L25.7764 9.63935L25.8325 9.71331C25.9298 9.84274 26.1878 10.2273 26.3038 10.4122C26.8311 11.2628 27.2425 12.1762 27.5343 13.1303C28.2112 15.4267 28.1551 17.8748 27.3622 20.138Z" fill="#F00500"/>
<path d="M22.5079 15.7189C22.4967 15.778 22.3209 15.9556 22.1451 16.085C21.629 16.4585 20.7052 16.8061 19.7664 16.9725C19.2316 17.0687 18.6968 17.0834 18.5359 17.0058C18.4312 16.954 18.4163 16.9133 18.4537 16.7802C18.5322 16.5029 18.7865 16.1996 19.183 15.9149C19.3849 15.7707 20.204 15.2788 20.5855 15.0717C21.2138 14.7315 21.7225 14.5281 22.0666 14.48C22.1751 14.4653 22.306 14.4616 22.3471 14.48C22.4144 14.5059 22.4892 14.7019 22.5191 14.9386C22.5341 15.0643 22.5266 15.619 22.5079 15.7189Z" fill="black"/>
<path d="M13.6963 16.9428C13.6739 16.9872 13.5617 17.0353 13.4345 17.0538C13.3073 17.0723 12.9184 17.0612 12.6977 17.0353C11.9048 16.9317 11.0633 16.6914 10.4499 16.3955C10.1058 16.2291 9.85898 16.0627 9.67571 15.8815L9.57099 15.7743L9.55977 15.6337C9.54107 15.3897 9.54481 15.0051 9.57473 14.8683C9.59343 14.7536 9.63457 14.6427 9.69067 14.5428C9.72059 14.5059 9.72059 14.5059 9.85524 14.5059C10.0198 14.5059 10.1582 14.5317 10.3826 14.602C10.8426 14.7425 11.5271 15.0827 12.3611 15.5783C13.0493 15.9851 13.3073 16.1848 13.5056 16.4584C13.6402 16.6285 13.73 16.8689 13.6963 16.9428Z" fill="black"/>
<path d="M18.9923 22.0905C18.9923 22.1016 18.9474 22.2791 18.8913 22.4898C18.8352 22.7006 18.7903 22.8707 18.7903 22.8781C18.7492 22.8818 18.7118 22.8855 18.6706 22.8818H18.5509L18.3864 23.2664C18.2966 23.4772 18.2143 23.6732 18.2031 23.7028L18.1807 23.7546L18.1021 23.6288L18.0236 23.5031V22.4788L17.9937 22.4861C17.9301 22.5009 17.4775 22.5601 17.2793 22.5786C16.4602 22.66 15.6374 22.6415 14.8221 22.5268C14.6912 22.5083 14.579 22.4935 14.5752 22.4972C14.5715 22.5009 14.5752 22.7376 14.5827 23.0298L14.5939 23.5549L14.5303 23.651C14.4967 23.7028 14.463 23.7472 14.463 23.7509C14.4518 23.762 14.4144 23.7028 14.3284 23.5327C14.2349 23.3552 14.1676 23.1666 14.1189 22.9706L14.0928 22.8633L13.9768 22.8707L13.8609 22.8818L13.8309 22.745C13.816 22.671 13.7973 22.5564 13.7898 22.4935L13.7786 22.3752L13.6813 22.2902C13.6252 22.2421 13.5691 22.194 13.5579 22.1866C13.5392 22.1718 13.5317 22.1459 13.5317 22.1237V22.0794L13.9992 22.0831L14.4668 22.0868L14.4817 22.1348L14.4967 22.1829L14.6575 22.1903C14.7473 22.194 15.0315 22.2014 15.2858 22.2088L15.7534 22.2199L15.873 22.035L15.9965 21.8501H16.1535L16.1498 21.4655L16.1461 21.0809L15.9404 20.9922C15.2784 20.7037 14.8894 20.3746 14.7435 19.9752C14.7136 19.8939 14.7136 19.8643 14.7061 19.4945C14.7024 19.1284 14.7024 19.0951 14.7286 19.0137C14.7809 18.8288 14.9268 18.6846 15.1138 18.6365C15.1774 18.618 15.3457 18.618 16.2283 18.618L17.2681 18.6217L17.384 18.6772C17.5224 18.7438 17.586 18.7918 17.6645 18.8954C17.7543 19.0137 17.7805 19.1062 17.7805 19.3318C17.7805 19.6535 17.758 19.9308 17.7244 20.0418C17.6758 20.1934 17.601 20.3376 17.5075 20.467C17.3204 20.7037 16.9801 20.9404 16.6697 21.0476L16.5799 21.0809L16.5837 21.4692L16.5874 21.8575L16.6697 21.8649L16.752 21.8723L16.8642 22.0387L16.9726 22.2051H17.4738C17.7506 22.2051 17.9937 22.2088 18.0161 22.2125C18.0535 22.2199 18.061 22.2162 18.0984 22.1533L18.1433 22.0868H18.5734C18.895 22.072 18.9923 22.0794 18.9923 22.0905Z" fill="black"/>
<path d="M17.017 23.1517C16.946 23.1924 16.8974 23.2109 16.8861 23.2035C16.8749 23.1998 16.8225 23.1554 16.7664 23.1148L16.6655 23.0334L16.5607 23.1443C16.3326 23.3884 16.3251 23.3995 16.2578 23.4032C16.1531 23.4143 16.1306 23.3958 16.0035 23.2072C15.9362 23.1111 15.8838 23.0297 15.8838 23.0297C15.8838 23.0297 15.8352 23.0223 15.7791 23.0186L15.6744 23.0075L15.6257 23.1074L15.5771 23.2072L15.4911 23.1813C15.4238 23.1591 15.3564 23.1333 15.2929 23.1037L15.1807 23.0482V22.8374L16.1755 22.8411L17.1704 22.8448L17.1741 22.9446C17.1779 23.063 17.1816 23.0593 17.017 23.1517Z" fill="black"/>
<path d="M26.3674 18.6402C26.3636 18.6254 26.3636 18.5996 26.3599 18.5589C25.4623 18.4627 22.9003 18.4036 20.5216 20.345C20.5216 20.345 19.7549 16.8689 16.1645 16.8689C12.574 16.8689 11.2425 20.345 11.2425 20.345C9.23037 18.2039 6.53753 18.3592 5.56511 18.4997C5.56511 18.5219 5.56137 18.5478 5.56137 18.57C5.53145 19.1062 5.54641 19.3613 5.63617 19.6979C5.91667 20.7518 6.78063 21.913 8.13453 23.0519C10.3524 24.9157 13.3594 26.2618 15.6371 26.4171C18.012 26.5761 21.5165 25.2042 23.8503 23.1999C24.2168 22.8781 24.5609 22.5379 24.8825 22.1755C25.1144 21.9093 25.4585 21.4507 25.4323 21.4507C25.4249 21.4507 25.4323 21.4433 25.4473 21.4359C25.4585 21.4285 25.4697 21.4174 25.4623 21.41C25.4585 21.4063 25.466 21.3952 25.4772 21.3915C25.4884 21.3878 25.4959 21.3805 25.4922 21.3731C25.4884 21.3657 25.4922 21.3583 25.5071 21.3546C25.5184 21.3509 25.5221 21.3398 25.5184 21.3324C25.5146 21.325 25.5184 21.3176 25.5258 21.3176C25.5333 21.3176 25.5408 21.3065 25.5408 21.2991C25.5408 21.2917 25.5483 21.2806 25.5558 21.2806C25.5632 21.2806 25.5707 21.2732 25.5707 21.2658C25.5819 21.2362 25.6006 21.2066 25.6193 21.1808C25.6754 21.0957 25.8998 20.7 25.9298 20.6335C26.143 20.1564 26.2776 19.7311 26.3412 19.3059C26.3636 19.1025 26.3823 18.729 26.3674 18.6402ZM17.0172 23.1518C16.9461 23.1925 16.8975 23.211 16.8863 23.2036C16.8751 23.1999 16.8227 23.1555 16.7666 23.1148L16.6656 23.0335L16.5609 23.1444C16.3328 23.3885 16.3253 23.3996 16.258 23.4033C16.1532 23.4144 16.1308 23.3959 16.0036 23.2073C15.9363 23.1111 15.8839 23.0298 15.8839 23.0298C15.8839 23.0298 15.8353 23.0224 15.7792 23.0187L15.6745 23.0076L15.6259 23.1074L15.5773 23.2073L15.4912 23.1814C15.4239 23.1592 15.3566 23.1333 15.293 23.1037L15.1808 23.0482V22.8375L16.1757 22.8412L17.1705 22.8449L17.1743 22.9447C17.178 23.063 17.1818 23.0593 17.0172 23.1518ZM18.8872 22.4862C18.8311 22.6969 18.7862 22.867 18.7862 22.8744C18.7451 22.8781 18.7077 22.8818 18.6666 22.8781H18.5469L18.3861 23.2664C18.2963 23.4772 18.214 23.6732 18.2028 23.7028L18.1804 23.7546L18.1018 23.6288L18.0233 23.5031V22.4788L17.9933 22.4862C17.9298 22.5009 17.4772 22.5601 17.279 22.5786C16.4599 22.66 15.6371 22.6415 14.8218 22.5268C14.6909 22.5083 14.5787 22.4935 14.5749 22.4972C14.5712 22.5009 14.5749 22.7376 14.5824 23.0298L14.5936 23.5549L14.53 23.651C14.4964 23.7028 14.4627 23.7472 14.4627 23.7509C14.4515 23.762 14.4141 23.7028 14.3281 23.5327C14.2346 23.3552 14.1673 23.1666 14.1186 22.9706L14.0925 22.8633L13.9765 22.8707L13.8606 22.8818L13.8307 22.745C13.8157 22.6711 13.797 22.5564 13.7895 22.4935L13.7783 22.3752L13.6811 22.2902C13.6249 22.2421 13.5689 22.194 13.5576 22.1866C13.5389 22.1718 13.5314 22.1459 13.5314 22.1237V22.0794L13.999 22.0831L14.4665 22.0868L14.4814 22.1348L14.4964 22.1829L14.6572 22.1903C14.747 22.194 15.0312 22.2014 15.2855 22.2088L15.753 22.2199L15.8727 22.035L15.9962 21.8501H16.1532L16.1495 21.4655L16.1458 21.0809L15.9401 20.9922C15.2781 20.7037 14.8891 20.3746 14.7432 19.9752C14.7133 19.8939 14.7133 19.8643 14.7058 19.4945C14.7021 19.1284 14.7021 19.0951 14.7283 19.0137C14.7806 18.8288 14.9265 18.6846 15.1135 18.6365C15.1771 18.618 15.3454 18.618 16.228 18.618L17.2678 18.6217L17.3837 18.6772C17.5221 18.7438 17.5857 18.7919 17.6642 18.8954C17.754 19.0137 17.7802 19.1062 17.7802 19.3318C17.7802 19.6535 17.7577 19.9308 17.7241 20.0418C17.6754 20.1934 17.6006 20.3376 17.5071 20.467C17.3201 20.7037 16.9798 20.9404 16.6694 21.0476L16.5796 21.0809L16.5833 21.4692L16.5871 21.8575L16.6694 21.8649L16.7516 21.8723L16.8638 22.0387L16.9723 22.2051H17.4735C17.7502 22.2051 17.9933 22.2088 18.0158 22.2125C18.0532 22.2199 18.0607 22.2162 18.0981 22.1533L18.143 22.0868H18.5731C18.9059 22.0868 19.0032 22.0905 19.0032 22.1016C18.9919 22.0979 18.9433 22.2791 18.8872 22.4862Z" fill="white"/>
<path d="M26.3374 18.2631C26.3299 18.0967 26.315 17.8637 26.3038 17.7491C26.1429 16.0702 25.7091 14.6982 24.8863 13.2449C24.8526 13.1894 24.8227 13.134 24.804 13.0896C24.7965 13.0785 24.7928 13.0674 24.789 13.06C24.905 12.7161 25.38 11.2776 25.7577 9.63196C26.2701 7.39837 26.5955 4.78759 25.6006 4.00362C25.6006 4.00362 23.8802 3.87789 21.5763 6.11147C20.9517 6.72904 20.3795 7.39838 19.8708 8.11209L19.71 8.06032C18.7825 7.76078 17.8213 7.57588 16.8526 7.51301C16.5609 7.49082 15.4725 7.49082 15.1172 7.51301C14.0438 7.58327 13.221 7.74229 12.286 8.06401C12.2486 8.07881 12.2149 8.0899 12.1813 8.10099C11.6539 7.39098 11.0667 6.72534 10.4197 6.11517C8.02232 3.87049 6.23831 3.99992 6.23831 3.99992C5.18361 4.80978 5.54266 7.5389 6.08871 9.84645C6.44775 11.3737 6.88908 12.7161 7.05364 13.2005C7.04242 13.2264 7.02746 13.256 7.0125 13.2819C6.14107 15.0273 5.66982 16.7099 5.55762 18.4998C6.53377 18.3592 9.22288 18.2002 11.2388 20.3451C11.2388 20.3451 12.5702 16.8689 16.1607 16.8689C19.7512 16.8689 20.5179 20.3451 20.5179 20.3451C22.8966 18.4036 25.4585 18.4665 26.3561 18.5589C26.3524 18.485 26.3449 18.374 26.3374 18.2631ZM7.76052 11.8064C7.76052 11.8064 6.36173 8.34876 6.72078 6.37403C6.78062 6.04121 6.89282 5.74907 7.0686 5.52719C7.0686 5.52719 8.65439 5.68251 11.2126 8.49298C11.2126 8.49298 10.7264 8.72596 10.0756 9.22149C10.0756 9.22149 10.0719 9.22518 10.0681 9.22518C9.36126 9.76139 8.45617 10.6119 7.76052 11.8064ZM13.696 16.9429C13.6736 16.9873 13.5614 17.0353 13.4342 17.0538C13.307 17.0723 12.9181 17.0612 12.6974 17.0353C11.9045 16.9318 11.063 16.6914 10.4496 16.3956C10.1055 16.2292 9.85869 16.0628 9.67543 15.8816L9.57071 15.7743L9.55949 15.6338C9.54079 15.3897 9.54453 15.0051 9.57445 14.8683C9.59315 14.7537 9.63429 14.6427 9.69039 14.5429C9.72031 14.5059 9.72031 14.5059 9.85495 14.5059C10.0195 14.5059 10.1579 14.5318 10.3823 14.6021C10.8423 14.7426 11.5268 15.0828 12.3608 15.5783C13.049 15.9851 13.307 16.1848 13.5053 16.4585C13.6399 16.6286 13.7297 16.8689 13.696 16.9429ZM22.5076 15.7189C22.4964 15.778 22.3206 15.9555 22.1448 16.085C21.6287 16.4585 20.7049 16.8061 19.7661 16.9725C19.2313 17.0686 18.6965 17.0834 18.5356 17.0058C18.4309 16.954 18.416 16.9133 18.4534 16.7802C18.5319 16.5028 18.7862 16.1996 19.1827 15.9149C19.3846 15.7706 20.2037 15.2788 20.5852 15.0717C21.2135 14.7315 21.7222 14.5281 22.0663 14.48C22.1747 14.4652 22.3056 14.4615 22.3468 14.48C22.4141 14.5059 22.4889 14.7019 22.5188 14.9386C22.5338 15.0643 22.5263 15.619 22.5076 15.7189ZM21.8867 9.22149L21.8793 9.21779C21.2509 8.72226 20.7797 8.48928 20.7797 8.48928C23.2519 5.67881 24.7816 5.52349 24.7816 5.52349C24.9499 5.74907 25.0583 6.03751 25.1182 6.37033C25.466 8.34506 24.1158 11.8064 24.1158 11.8064C23.5511 10.8116 22.7918 9.9315 21.8867 9.22149Z" fill="#FFA409"/>
<path d="M25.122 6.37028C24.8302 6.3333 23.4502 6.3259 21.8868 9.22143L21.8794 9.21774C21.251 8.7222 20.7798 8.48923 20.7798 8.48923C23.252 5.67875 24.7816 5.52344 24.7816 5.52344C24.9537 5.74902 25.0621 6.03746 25.122 6.37028Z" fill="#FF9300"/>
<path d="M24.1195 11.8063C23.551 10.8079 22.7956 9.93143 21.8867 9.22142C23.4501 6.32589 24.8264 6.33328 25.1219 6.37026C25.4697 8.34869 24.1195 11.8063 24.1195 11.8063Z" fill="#FF8300"/>
<path d="M25.1782 6.38133C25.1595 6.37763 25.1408 6.37394 25.1221 6.37024L25.1782 6.38133Z" fill="#FF8300"/>
<path d="M11.2128 8.48923C11.2128 8.48923 10.7266 8.7222 10.0759 9.21774C10.0759 9.21774 10.0721 9.22143 10.0684 9.22143C8.44893 6.3222 7.02397 6.3333 6.71729 6.37028C6.77713 6.03746 6.88933 5.74532 7.06511 5.52344C7.06885 5.52344 8.65464 5.67875 11.2128 8.48923Z" fill="#FF9300"/>
<path d="M10.0722 9.22142C9.36154 9.76132 8.45644 10.6082 7.76079 11.8063C7.76079 11.8063 6.362 8.34869 6.72105 6.37026C7.02399 6.33328 8.4527 6.32589 10.0722 9.22142Z" fill="#FF8300"/>
<path d="M6.72097 6.37024C6.70227 6.37394 6.67983 6.37763 6.66113 6.38133L6.72097 6.37024Z" fill="#FF8300"/>
<path d="M20.3346 13.7256C20.3346 13.7256 19.1378 13.7996 19.2874 12.8751C19.437 11.9506 20.372 11.8396 20.6338 11.8766C20.8956 11.9136 21.9428 12.2834 21.7558 13.06C21.5688 13.8365 21.307 13.6886 21.1574 13.7256C21.0078 13.7626 20.3346 13.7256 20.3346 13.7256Z" fill="white"/>
<path d="M11.5079 13.7256C11.5079 13.7256 10.3111 13.7996 10.4607 12.8751C10.6103 11.9506 11.5453 11.8396 11.8071 11.8766C12.0689 11.9136 13.1161 12.2834 12.9291 13.06C12.7421 13.8365 12.4803 13.6886 12.3307 13.7256C12.1811 13.7626 11.5079 13.7256 11.5079 13.7256Z" fill="white"/>
</g>
<defs>
<clipPath id="clip0_998_3246">
<rect width="24" height="24" fill="white" transform="translate(4 4)"/>
</clipPath>
</defs>
</svg>
