<svg width="32" height="32" viewBox="0 0 32 32" fill="none" xmlns="http://www.w3.org/2000/svg">
<rect width="32" height="32" rx="16" fill="#50AF95"/>
<g clip-path="url(#clip0_998_3296)">
<path fill-rule="evenodd" clip-rule="evenodd" d="M8.39452 4.11787L4.01848 14.6845C4.00183 14.7238 3.99655 14.7682 4.00342 14.8112C4.01029 14.8542 4.02895 14.8935 4.05666 14.9235L15.8753 27.9423C15.9089 27.9793 15.9536 28 16.0001 28C16.0466 28 16.0913 27.9793 16.1249 27.9423L27.9435 14.9243C27.9712 14.8943 27.9899 14.855 27.9968 14.812C28.0036 14.769 27.9984 14.7246 27.9817 14.6853L23.6057 4.11869C23.5915 4.0832 23.5688 4.05314 23.5402 4.03209C23.5117 4.01105 23.4784 3.99991 23.4445 4.00002H8.55715C8.52304 3.99953 8.48953 4.0104 8.46068 4.03131C8.43182 4.05222 8.40885 4.08229 8.39452 4.11787V4.11787V4.11787Z" fill="#50AF95"/>
<path fill-rule="evenodd" clip-rule="evenodd" d="M17.5186 15.7695C17.4338 15.7768 16.9954 15.8069 16.0175 15.8069C15.2397 15.8069 14.6875 15.7801 14.4938 15.7695C11.488 15.6175 9.24451 15.016 9.24451 14.2959C9.24451 13.5757 11.488 12.975 14.4938 12.8206V15.1705C14.6903 15.1867 15.2532 15.2249 16.0309 15.2249C16.9643 15.2249 17.4317 15.1802 17.5158 15.1713V12.8222C20.5152 12.9759 22.7538 13.5773 22.7538 14.2959C22.7538 15.0144 20.5159 15.6159 17.5158 15.7687L17.5186 15.7695ZM17.5186 12.5792V10.4765H21.7045V7.2699H10.3079V10.4765H14.4931V12.5784C11.0914 12.758 8.5332 13.5326 8.5332 14.4609C8.5332 15.3891 11.0914 16.1629 14.4931 16.3434V23.0816H17.5179V16.3409C20.9118 16.1613 23.4658 15.3875 23.4658 14.4601C23.4658 13.5326 20.914 12.7588 17.5179 12.5784L17.5186 12.5792Z" fill="white"/>
</g>
<defs>
<clipPath id="clip0_998_3296">
<rect width="24" height="24" fill="white" transform="translate(4 4)"/>
</clipPath>
</defs>
</svg>
