<svg width="32" height="32" viewBox="0 0 32 32" fill="none" xmlns="http://www.w3.org/2000/svg">
<path d="M13.4806 24.1996H8.42725C7.88058 24.1996 7.42725 23.7463 7.42725 23.1996V16.3729C7.42725 14.9863 8.56057 13.8528 9.94723 13.8528H13.4806C14.0272 13.8528 14.4806 14.3061 14.4806 14.8528V23.1861C14.4806 23.7461 14.0272 24.1996 13.4806 24.1996ZM9.42725 22.1996H12.4806V15.8663H9.94723C9.66723 15.8663 9.42725 16.0928 9.42725 16.3861V22.1996Z" fill="white"/>
<path d="M18.5196 24.1996H13.4663C12.9196 24.1996 12.4663 23.7462 12.4663 23.1996V10.3195C12.4663 8.93279 13.5996 7.79944 14.9863 7.79944H17.013C18.3996 7.79944 19.533 8.93279 19.533 10.3195V23.1996C19.5196 23.7462 19.0796 24.1996 18.5196 24.1996ZM14.4796 22.1996H17.533V10.3195C17.533 10.0395 17.3063 9.79944 17.013 9.79944H14.9863C14.7063 9.79944 14.4663 10.0261 14.4663 10.3195V22.1996H14.4796Z" fill="white"/>
<path d="M23.5743 24.1996H18.521C17.9743 24.1996 17.521 23.7463 17.521 23.1996V17.1328C17.521 16.5861 17.9743 16.1328 18.521 16.1328H22.0543C23.441 16.1328 24.5743 17.2661 24.5743 18.6528V23.1996C24.5743 23.7463 24.1343 24.1996 23.5743 24.1996ZM19.521 22.1996H22.5743V18.6528C22.5743 18.3728 22.3477 18.1328 22.0543 18.1328H19.521V22.1996Z" fill="white"/>
<path d="M19.9998 30.3333H11.9998C4.75984 30.3333 1.6665 27.24 1.6665 20V12C1.6665 4.75996 4.75984 1.66663 11.9998 1.66663H19.9998C27.2398 1.66663 30.3332 4.75996 30.3332 12V20C30.3332 27.24 27.2398 30.3333 19.9998 30.3333ZM11.9998 3.66663C5.85317 3.66663 3.6665 5.85329 3.6665 12V20C3.6665 26.1466 5.85317 28.3333 11.9998 28.3333H19.9998C26.1465 28.3333 28.3332 26.1466 28.3332 20V12C28.3332 5.85329 26.1465 3.66663 19.9998 3.66663H11.9998Z" fill="white"/>
</svg>
