<svg width="10" height="10" viewBox="0 0 10 10" fill="none" xmlns="http://www.w3.org/2000/svg">
<path d="M3.26643 9.93312L0.056253 6.0454C-0.018751 5.95456 -0.018751 5.80923 0.056253 5.71839L1.14298 4.4023C1.21798 4.31147 1.33799 4.31147 1.41299 4.4023L3.20809 6.57628C3.28309 6.66711 3.40143 6.66509 3.47477 6.57224C5.16486 4.4023 6.84662 2.24044 8.53338 0.0725195C8.60505 -0.0203336 8.72672 -0.0243707 8.80339 0.0624268L9.94012 1.36035C10.0168 1.44715 10.0201 1.5945 9.94845 1.68736C7.805 4.44065 5.66489 7.18789 3.53144 9.92908C3.45977 10.0219 3.33976 10.024 3.26643 9.93312Z" fill="#247D91"/>
</svg>
