<svg width="22" height="26" viewBox="0 0 22 26" fill="none" xmlns="http://www.w3.org/2000/svg">
<path d="M21.1426 3.34766L18.6523 0.857422C18.2129 0.417969 17.627 0.125 16.9922 0.125H8.59375C7.27539 0.125 6.25 1.19922 6.25 2.46875V4.8125H2.34375C1.02539 4.8125 0 5.88672 0 7.15625V22.7812C0 24.0996 1.02539 25.125 2.34375 25.125H13.2812C14.5508 25.125 15.625 24.0996 15.625 22.7812V20.4375H19.5312C20.8008 20.4375 21.875 19.4121 21.875 18.0938V5.00781C21.875 4.37305 21.582 3.78711 21.1426 3.34766ZM12.9883 22.7812H2.63672C2.44141 22.7812 2.34375 22.6836 2.34375 22.4883V7.44922C2.34375 7.30273 2.44141 7.15625 2.63672 7.15625H6.25V18.0938C6.25 19.4121 7.27539 20.4375 8.59375 20.4375H13.2812V22.4883C13.2812 22.6836 13.1348 22.7812 12.9883 22.7812ZM19.2383 18.0938H8.88672C8.69141 18.0938 8.59375 17.9961 8.59375 17.8008V2.76172C8.59375 2.61523 8.69141 2.46875 8.88672 2.46875H14.0625V6.76562C14.0625 7.44922 14.5508 7.9375 15.2344 7.9375H19.5312V17.8008C19.5312 17.9961 19.3848 18.0938 19.2383 18.0938ZM19.5312 5.59375H16.4062V2.46875H16.8457C16.9434 2.46875 16.9922 2.51758 17.041 2.56641L19.4336 4.95898C19.4824 5.00781 19.5312 5.05664 19.5312 5.1543V5.59375Z" fill="white"/>
</svg>
