<svg width="32" height="33" viewBox="0 0 32 33" fill="none" xmlns="http://www.w3.org/2000/svg">
<rect y="0.967285" width="32" height="32" rx="16" fill="url(#paint0_linear_73_2396)"/>
<g clip-path="url(#clip0_73_2396)">
<path d="M15.9979 4.96729L15.8369 5.51421V21.3834L15.9979 21.544L23.3641 17.1898L15.9979 4.96729Z" fill="#343434"/>
<path d="M15.9979 4.96729L8.63159 17.1898L15.9979 21.544V13.8416V4.96729Z" fill="#8C8C8C"/>
<path d="M15.998 22.9386L15.9072 23.0493V28.7021L15.998 28.967L23.3686 18.5867L15.998 22.9386Z" fill="#3C3C3B"/>
<path d="M15.9979 28.967V22.9386L8.63159 18.5867L15.9979 28.967Z" fill="#8C8C8C"/>
<path d="M15.998 21.544L23.3642 17.1898L15.998 13.8416V21.544Z" fill="#141414"/>
<path d="M8.63159 17.1898L15.9979 21.544V13.8416L8.63159 17.1898Z" fill="#393939"/>
</g>
<defs>
<linearGradient id="paint0_linear_73_2396" x1="4.72727" y1="0.967286" x2="28.7273" y2="34.7855" gradientUnits="userSpaceOnUse">
<stop stop-color="white"/>
<stop offset="1" stop-color="#D9D9D9" stop-opacity="0.71"/>
</linearGradient>
<clipPath id="clip0_73_2396">
<rect width="24" height="24" fill="white" transform="translate(4 4.96729)"/>
</clipPath>
</defs>
</svg>
