<svg width="32" height="32" viewBox="0 0 32 32" fill="none" xmlns="http://www.w3.org/2000/svg">
<path d="M9.5599 30.3329C6.38657 30.3329 3.78662 28.0262 3.78662 25.1862V22.4662C3.78662 21.9195 4.23995 21.4662 4.78662 21.4662C5.33329 21.4662 5.78662 21.9195 5.78662 22.4662C5.78662 24.1329 7.3999 25.3862 9.5599 25.3862C11.7199 25.3862 13.3333 24.1329 13.3333 22.4662C13.3333 21.9195 13.7866 21.4662 14.3332 21.4662C14.8799 21.4662 15.3332 21.9195 15.3332 22.4662V25.1862C15.3332 28.0262 12.7466 30.3329 9.5599 30.3329ZM6.13322 26.4929C6.71989 27.5862 8.0399 28.3329 9.5599 28.3329C11.0799 28.3329 12.3999 27.5729 12.9866 26.4929C12.0399 27.0662 10.8666 27.3995 9.5599 27.3995C8.25323 27.3995 7.07989 27.0662 6.13322 26.4929Z" fill="white"/>
<path d="M9.5599 23.7325C7.37323 23.7325 5.41327 22.7325 4.43994 21.1459C4.01327 20.4525 3.78662 19.6392 3.78662 18.8125C3.78662 17.4125 4.39994 16.1059 5.51994 15.1325C7.67994 13.2392 11.3999 13.2393 13.5732 15.1193C14.6932 16.106 15.3199 17.4125 15.3199 18.8125C15.3199 19.6392 15.0932 20.4525 14.6666 21.1459C13.7066 22.7325 11.7466 23.7325 9.5599 23.7325ZM9.5599 15.666C8.5199 15.666 7.55993 16.0125 6.83993 16.6392C6.15993 17.2259 5.78662 17.9992 5.78662 18.8125C5.78662 19.2792 5.90657 19.706 6.14657 20.106C6.7599 21.1193 8.06657 21.746 9.5599 21.746C11.0532 21.746 12.3599 21.1193 12.9599 20.1193C13.1999 19.7327 13.3199 19.2927 13.3199 18.826C13.3199 18.0127 12.9466 17.2392 12.2666 16.6392C11.5599 16.0125 10.5999 15.666 9.5599 15.666Z" fill="white"/>
<path d="M9.5599 27.4C6.26657 27.4 3.78662 25.28 3.78662 22.48V18.8133C3.78662 15.9733 6.37323 13.6666 9.5599 13.6666C11.0666 13.6666 12.5066 14.1866 13.5866 15.12C14.7066 16.1066 15.3332 17.4133 15.3332 18.8133V22.48C15.3332 25.28 12.8532 27.4 9.5599 27.4ZM9.5599 15.6666C7.4799 15.6666 5.78662 17.08 5.78662 18.8133V22.48C5.78662 24.1466 7.3999 25.4 9.5599 25.4C11.7199 25.4 13.3333 24.1466 13.3333 22.48V18.8133C13.3333 18 12.96 17.2266 12.28 16.6266C11.56 16.0133 10.5999 15.6666 9.5599 15.6666Z" fill="white"/>
<path d="M25.3867 19.7336C23.3734 19.7336 21.6667 18.2403 21.5067 16.3203C21.4 15.2136 21.8 14.1336 22.6 13.347C23.2667 12.6536 24.2134 12.267 25.2134 12.267H28C29.32 12.307 30.3334 13.347 30.3334 14.627V17.3736C30.3334 18.6536 29.32 19.6936 28.04 19.7336H25.3867ZM27.96 14.267H25.2267C24.76 14.267 24.3334 14.4403 24.0267 14.7603C23.64 15.1336 23.4534 15.6403 23.5067 16.147C23.5734 17.027 24.4267 17.7336 25.3867 17.7336H28C28.1734 17.7336 28.3334 17.5736 28.3334 17.3736V14.627C28.3334 14.427 28.1734 14.2803 27.96 14.267Z" fill="white"/>
<path d="M21.3338 28.3333H18.0004C17.4538 28.3333 17.0004 27.88 17.0004 27.3333C17.0004 26.7866 17.4538 26.3333 18.0004 26.3333H21.3338C24.7738 26.3333 27.0004 24.1066 27.0004 20.6666V19.7333H25.3871C23.3738 19.7333 21.6671 18.24 21.5071 16.32C21.4004 15.2133 21.8006 14.1333 22.6006 13.3466C23.2672 12.6533 24.2138 12.2666 25.2138 12.2666H26.9871V11.3333C26.9871 8.21329 25.1606 6.0666 22.2006 5.71993C21.8806 5.6666 21.6004 5.66663 21.3204 5.66663H9.32048C9.00048 5.66663 8.6938 5.69328 8.38713 5.73328C5.45379 6.10661 3.65381 8.23996 3.65381 11.3333V14C3.65381 14.5466 3.20048 15 2.65381 15C2.10714 15 1.65381 14.5466 1.65381 14V11.3333C1.65381 7.22663 4.1872 4.25331 8.12053 3.75997C8.48053 3.70664 8.89381 3.66663 9.32048 3.66663H21.3204C21.6404 3.66663 22.0538 3.67996 22.4804 3.74663C26.4138 4.19996 28.9871 7.18663 28.9871 11.3333V13.2666C28.9871 13.8133 28.5338 14.2666 27.9871 14.2666H25.2138C24.7471 14.2666 24.3206 14.44 24.0139 14.76C23.6272 15.1333 23.4404 15.64 23.4938 16.1466C23.5604 17.0266 24.4139 17.7333 25.3739 17.7333H28.0004C28.5471 17.7333 29.0004 18.1866 29.0004 18.7333V20.6666C29.0004 25.2533 25.9204 28.3333 21.3338 28.3333Z" fill="white"/>
</svg>
